<svg xmlns="http://www.w3.org/2000/svg"  viewBox="0 0 64 64" width="64px" height="64px"><radialGradient id="pqpPucyTDCeoYBr7yEE~1a" cx="30.5" cy="32" r="31.751" gradientTransform="matrix(-1 0 0 1 62 0)" gradientUnits="userSpaceOnUse" spreadMethod="reflect"><stop offset="0" stop-color="#c5f1ff"/><stop offset=".35" stop-color="#cdf3ff"/><stop offset=".907" stop-color="#e4faff"/><stop offset="1" stop-color="#e9fbff"/></radialGradient><path fill="url(#pqpPucyTDCeoYBr7yEE~1a)" d="M0,47.5L0,47.5C0,45.015,2.015,43,4.5,43H30c1.105,0,2-0.895,2-2V22c0-1.105-0.895-2-2-2H15 c-2.209,0-4-1.791-4-4v0c0-2.209,1.791-4,4-4h10c1.105,0,2-0.895,2-2v0c0-1.105-0.895-2-2-2h-1c-2.209,0-4-1.791-4-4v0 c0-2.209,1.791-4,4-4l29.5,0C56.538,0,59,2.462,59,5.5v0c0,3.038-2.462,5.5-5.5,5.5h-3c-3.038,0-5.5,2.462-5.5,5.5v0 c0,3.038,2.462,5.5,5.5,5.5h6c3.038,0,5.5,2.462,5.5,5.5v0c0,3.038-2.462,5.5-5.5,5.5H48c-1.657,0-3,1.343-3,3v0 c0,1.657,1.343,3,3,3h10.5c2.485,0,4.5,2.015,4.5,4.5v0c0,2.485-2.015,4.5-4.5,4.5H58c-2.209,0-4,1.791-4,4v0c0,2.209,1.791,4,4,4h1 c2.209,0,4,1.791,4,4v0c0,2.209-1.791,4-4,4H9c-2.209,0-4-1.791-4-4v0c0-2.209,1.791-4,4-4h3c1.105,0,2-0.895,2-2v0 c0-1.105-0.895-2-2-2H4.5C2.015,52,0,49.985,0,47.5z"/><linearGradient id="pqpPucyTDCeoYBr7yEE~1b" x1="-148" x2="-148" y1="-329" y2="-349" gradientTransform="matrix(1 0 0 -1 162 -290)" gradientUnits="userSpaceOnUse" spreadMethod="reflect"><stop offset=".406" stop-color="#9c9c9c"/><stop offset=".571" stop-color="#949494"/><stop offset="1" stop-color="#848484"/></linearGradient><path fill="url(#pqpPucyTDCeoYBr7yEE~1b)" d="M15,59h-1c-2.209,0-4-1.791-4-4V41c0-1.105,0.895-2,2-2h0c1.105,0,2,0.895,2,2v12h1 c1.657,0,3,1.343,3,3v0C18,57.657,16.657,59,15,59z"/><linearGradient id="pqpPucyTDCeoYBr7yEE~1c" x1="-138" x2="-138" y1="-329" y2="-349" gradientTransform="matrix(1 0 0 -1 162 -290)" gradientUnits="userSpaceOnUse" spreadMethod="reflect"><stop offset=".406" stop-color="#9c9c9c"/><stop offset=".571" stop-color="#949494"/><stop offset="1" stop-color="#848484"/></linearGradient><path fill="url(#pqpPucyTDCeoYBr7yEE~1c)" d="M25,59h-1c-2.209,0-4-1.791-4-4V41c0-1.105,0.895-2,2-2h0c1.105,0,2,0.895,2,2v12h1 c1.657,0,3,1.343,3,3v0C28,57.657,26.657,59,25,59z"/><linearGradient id="pqpPucyTDCeoYBr7yEE~1d" x1="-125" x2="-125" y1="-329" y2="-349" gradientTransform="matrix(1 0 0 -1 162 -290)" gradientUnits="userSpaceOnUse" spreadMethod="reflect"><stop offset=".406" stop-color="#9c9c9c"/><stop offset=".571" stop-color="#949494"/><stop offset="1" stop-color="#848484"/></linearGradient><path fill="url(#pqpPucyTDCeoYBr7yEE~1d)" d="M38,59h-1c-2.209,0-4-1.791-4-4V41c0-1.105,0.895-2,2-2h0c1.105,0,2,0.895,2,2v12h1 c1.657,0,3,1.343,3,3v0C41,57.657,39.657,59,38,59z"/><linearGradient id="pqpPucyTDCeoYBr7yEE~1e" x1="-115" x2="-115" y1="-329" y2="-349" gradientTransform="matrix(1 0 0 -1 162 -290)" gradientUnits="userSpaceOnUse" spreadMethod="reflect"><stop offset=".406" stop-color="#9c9c9c"/><stop offset=".571" stop-color="#949494"/><stop offset="1" stop-color="#848484"/></linearGradient><path fill="url(#pqpPucyTDCeoYBr7yEE~1e)" d="M48,59h-1c-2.209,0-4-1.791-4-4V41c0-1.105,0.895-2,2-2h0c1.105,0,2,0.895,2,2v12h1 c1.657,0,3,1.343,3,3v0C51,57.657,49.657,59,48,59z"/><linearGradient id="pqpPucyTDCeoYBr7yEE~1f" x1="49.49" x2="49.49" y1="23.61" y2="10.733" gradientUnits="userSpaceOnUse" spreadMethod="reflect"><stop offset="0" stop-color="#66d7f2"/><stop offset=".278" stop-color="#71dbf4"/><stop offset=".772" stop-color="#90e6fa"/><stop offset="1" stop-color="#a0ecfd"/></linearGradient><path fill="url(#pqpPucyTDCeoYBr7yEE~1f)" d="M60.98 25.1L38 21 41.77 10.43z"/><linearGradient id="pqpPucyTDCeoYBr7yEE~1g" x1="21.92" x2="21.92" y1="11.793" y2="26.712" gradientUnits="userSpaceOnUse" spreadMethod="reflect"><stop offset="0" stop-color="#63d6f2"/><stop offset=".368" stop-color="#5cd3f1"/><stop offset=".885" stop-color="#4acbee"/><stop offset="1" stop-color="#45c9ed"/></linearGradient><path fill="url(#pqpPucyTDCeoYBr7yEE~1g)" d="M41.77,10.43L38,21L2.07,29.08c0-0.02,0.01-0.03,0.01-0.05l2.54-7.68 C4.82,20.69,5.34,20.18,6,20l34-9.93C40.61,9.9,41.27,10.03,41.77,10.43z"/><linearGradient id="pqpPucyTDCeoYBr7yEE~1h" x1="49.998" x2="49.998" y1="36.701" y2="15.433" gradientUnits="userSpaceOnUse" spreadMethod="reflect"><stop offset="0" stop-color="#2ea1eb"/><stop offset="1" stop-color="#2fa7f0"/></linearGradient><path fill="url(#pqpPucyTDCeoYBr7yEE~1h)" d="M61.65,28l-0.01,0.01L40,38l-2-17l22.98,4.1l0.26,0.2C62.06,25.95,62.24,27.13,61.65,28z"/><linearGradient id="pqpPucyTDCeoYBr7yEE~1i" x1="20.999" x2="20.999" y1="39.13" y2="16.192" gradientUnits="userSpaceOnUse" spreadMethod="reflect"><stop offset="0" stop-color="#2d92df"/><stop offset=".538" stop-color="#2ea1eb"/><stop offset="1" stop-color="#2fa7f0"/></linearGradient><path fill="url(#pqpPucyTDCeoYBr7yEE~1i)" d="M40,38L3.95,40.85C3.76,40.6,3.62,40.31,3.56,40L2.04,30c-0.07-0.3-0.05-0.62,0.03-0.92L38,21 L40,38z"/><linearGradient id="pqpPucyTDCeoYBr7yEE~1j" x1="50.82" x2="50.82" y1="46.465" y2="30.474" gradientUnits="userSpaceOnUse" spreadMethod="reflect"><stop offset="0" stop-color="#387ecc"/><stop offset=".368" stop-color="#3a84d3"/><stop offset="1" stop-color="#3b8ad9"/></linearGradient><path fill="url(#pqpPucyTDCeoYBr7yEE~1j)" d="M61.64,28.01L48.65,46.13C48.28,46.67,47.66,47,47,47h-0.25L40,38L61.64,28.01z"/><linearGradient id="pqpPucyTDCeoYBr7yEE~1k" x1="25.35" x2="25.35" y1="47" y2="38" gradientUnits="userSpaceOnUse" spreadMethod="reflect"><stop offset="0" stop-color="#3369b7"/><stop offset="1" stop-color="#3a82d0"/></linearGradient><path fill="url(#pqpPucyTDCeoYBr7yEE~1k)" d="M46.75,47H10c-0.58,0-1.14-0.26-1.52-0.7L4,40.91c-0.02-0.02-0.03-0.04-0.05-0.06L40,38 L46.75,47z"/></svg>